Genre:Horror | Mystery | Thriller
Language:English
IMDb:http://www.imdb.com/title/tt1314655/
Source:Devil 2010 PPVRipThanks
Subtitles:Romana


General
Complete name :Devil.2010.PPVRip.H264.Feel-Free
Format : MPEG-4
Format profile : Base Media
Codec ID : isom
File size : 642 MiB
Duration : 1h 20mn
Overall bit rate : 1 118 Kbps
Video #2
Codec ID : avc1
Codec ID/Info : Advanced Video Coding
Duration : 1h 20mn
Bit rate mode : Variable
Bit rate : 950 Kbps
Width : 720 pixels
Height : 384 pixels
Display aspect ratio : 1.875
Frame rate mode : Constant
Frame rate : 29.970 fps
Original frame rate : 29.000 fps
Resolution : 24 bits
Colorimetry : 4:2:0
Scan type : Progressive
Bits/(Pixel*Frame) : 0.115
Stream size : 545 MiB (85%)
Audio #1
ID : 1
Format : AAC
Format/Info : Advanced Audio Codec
Format version : Version 4
Format profile : LC
Format settings, SBR : No
Codec ID : 40
Duration : 1h 20mn
Bit rate mode : Constant
Bit rate : 160 Kbps
Channel(s) : 2 channels
Channel positions : L R
Sampling rate : 48.0 KHz
Resolution : 16 bits
Stream size : 91.8 MiB (14%)

Plot
A group of people trapped in an elevator realize that the devil is among them



================================== 
http://thepiratebay.org/user/hiest
==================================